#!OML:ASF X:\für Bonn\!DataBase\2005_08_12_Daniel\c3d\Daniel.ASF
:FULLY-SPECIFIED
:DEGREES
1
root -3.87661 16.9582 -1.57032 -19.4752 -72.0876 9.93441
lowerback 13.5167 -3.02417 -4.12786
upperback 7.49359 -4.87563 -4.10625
thorax 0.305546 -2.63829 -1.33746
lowerneck 4.98002 5.72886 -3.71327
upperneck 21.2453 6.47561 3.0763
head 5.37383 2.72498 1.74346
rclavicle 7.93151e-014 -1.66979e-014
rhumerus -42.1562 21.4342 -88.7375
rradius 55.6213
rwrist 6.93599
rhand -30.8612 35.9019
rfingers 7.12502
rthumb -4.14912 5.96252
lclavicle 7.93151e-014 -1.66979e-014
lhumerus -16.686 -0.195464 81.7878
lradius 78.9992
lwrist 27.6563
lhand -18.0245 -4.70522
lfingers 7.12502
lthumb 8.24672 25.1138
rfemur -0.259534 5.26531 13.784
rtibia 34.5127
rfoot -32.4396 -20.2472
rtoes -15.2234
lfemur -10.6615 -15.2718 -21.9439
ltibia 40.6141
lfoot -22.5222 5.51126
ltoes -2.94602
2
root -3.86286 16.9579 -1.49849 -19.8039 -71.9677 10.0175
lowerback 13.7093 -3.4592 -4.23992
upperback 7.55828 -5.4758 -4.07503
thorax 0.288754 -2.9448 -1.15812
lowerneck 5.29197 5.88617 -3.65337
upperneck 21.1188 6.68747 2.88515
head 5.28714 2.8147 1.66614
rclavicle -3.81667e-014 1.35174e-014
rhumerus -42.7175 20.3793 -88.2447
rradius 53.5995
rwrist 8.79835
rhand -30.9903 35.725
rfingers 7.12502
rthumb -4.27374 5.78813
lclavicle -3.81667e-014 1.35174e-014
lhumerus -15.2786 -0.143815 81.8893
lradius 80.7211
lwrist 28.4016
lhand -18.0585 -5.47914
lfingers 7.12502
lthumb 8.21385 24.3412
rfemur -0.891428 3.80935 12.9085
rtibia 35.8531
rfoot -30.962 -19.2152
rtoes -15.2692
lfemur -10.2596 -15.1533 -22.2929
ltibia 40.4027
lfoot -22.4986 5.12124
ltoes -2.36753
3
root -3.84661 16.9596 -1.4281 -20.1817 -71.8654 10.0984
lowerback 14.016 -3.88483 -4.35246
upperback 7.62781 -6.07301 -4.05182
thorax 0.219726 -3.24969 -0.976819
lowerneck 5.52782 6.03279 -3.55934
upperneck 21.0516 6.88846 2.68515
head 5.23404 2.90067 1.5836
rclavicle 1.43125e-014 3.18055e-014
rhumerus -43.2633 19.2894 -87.6414
rradius 51.8016
rwrist 10.538
rhand -30.8457 35.7519
rfingers 7.12502
rthumb -4.13412 5.81228
lclavicle 1.43125e-014 3.18055e-014
lhumerus -13.8053 -0.0757834 81.9435
lradius 82.3901
lwrist 29.0037
lhand -17.8283 -6.21875
lfingers 7.12502
lthumb 8.43606 23.5928
rfemur -1.65539 2.4851 12.0776
rtibia 37.5066
rfoot -29.2538 -18.3826
rtoes -15.2571
lfemur -9.77308 -15.0462 -22.6568
ltibia 40.1245
lfoot -22.4509 4.80021
ltoes -1.84382
4
root -3.82696 16.9676 -1.35961 -20.5109 -71.7614 10.1346
lowerback 14.3685 -4.31112 -4.4709
upperback 7.69784 -6.67531 -4.02184
thorax 0.132696 -3.55715 -0.777518
lowerneck 5.77224 6.17648 -3.41947
upperneck 20.9647 7.0947 2.4278
head 5.17814 2.99013 1.47513
rclavicle -2.78299e-015 -1.35174e-014
rhumerus -43.7906 18.2628 -86.9741
rradius 50.2377
rwrist 12.0727
rhand -30.5822 35.8511
rfingers 7.12502
rthumb -3.87972 5.9067
lclavicle -2.78299e-015 -1.35174e-014
lhumerus -12.277 0.0285187 81.9992
lradius 84.0236
lwrist 29.4536
lhand -17.4608 -6.90041
lfingers 7.12502
lthumb 8.79069 22.8965
rfemur -2.62154 1.31573 11.3025
rtibia 39.4575
rfoot -27.3876 -17.7291
rtoes -14.906
lfemur -9.25269 -14.9271 -23.0087
ltibia 39.7637
lfoot -22.2943 4.55416
ltoes -1.46007
5
root -3.80565 16.9832 -1.29362 -20.8504 -71.6766 10.1739
lowerback 14.7565 -4.73421 -4.62062
upperback 7.777 -7.28068 -3.99363
thorax 0.0451236 -3.86741 -0.556352
lowerneck 5.98812 6.33548 -3.29108
upperneck 20.8835 7.3205 2.18609
head 5.12792 3.08961 1.37464
rclavicle -1.8487e-014 7.95139e-015
rhumerus -44.2696 17.3949 -86.3087
rradius 48.8185
rwrist 13.3087
rhand -30.237 36.1071
rfingers 7.12502
rthumb -3.54635 6.15683
lclavicle -1.8487e-014 7.95139e-015
lhumerus -10.7112 0.182593 82.0329
lradius 85.6688
lwrist 29.7803
lhand -17.0472 -7.42188
lfingers 7.12502
lthumb 9.18978 22.3579
rfemur -3.80281 0.257645 10.5674
rtibia 41.6802
rfoot -25.1506 -17.3144
rtoes -14.5497
lfemur -8.67443 -14.8259 -23.3703
ltibia 39.3182
lfoot -22.1289 4.44556
ltoes -1.32558
6
root -3.78234 16.9987 -1.23128 -21.1531 -71.5938 10.1413
lowerback 15.2261 -5.15707 -4.82292
upperback 7.85683 -7.89825 -3.92774
thorax -0.0659828 -4.1854 -0.254332
lowerneck 6.15089 6.49895 -3.19922
upperneck 20.8275 7.55875 1.9155
head 5.09472 3.1909 1.27352
rclavicle -6.93758e-014 3.97569e-014
rhumerus -44.748 16.7989 -85.6542
rradius 47.53
rwrist 14.2308
rhand -29.9447 36.3388
rfingers 7.12502
rthumb -3.26407 6.38403
lclavicle -6.93758e-014 3.97569e-014
lhumerus -9.12367 0.392264 82.0774
lradius 87.3097
lwrist 30.0979
lhand -16.7356 -7.75043
lfingers 7.12502
lthumb 9.4905 22.0159
rfemur -5.16118 -0.656957 9.89429
rtibia 44.1208
rfoot -22.6855 -17.0613
rtoes -13.9578
lfemur -8.04141 -14.7563 -23.7161
ltibia 38.8343
lfoot -21.9311 4.3746
ltoes -1.29954
7
root -3.75774 17.0145 -1.17292 -21.4494 -71.5248 10.0853
lowerback 15.732 -5.572 -5.04859
upperback 7.95435 -8.51304 -3.86753
thorax -0.16683 -4.5035 0.0609118
lowerneck 6.31256 6.67305 -3.1356
upperneck 20.7611 7.80636 1.67297
head 5.05676 3.29679 1.18548
rclavicle 5.20816e-014 -1.59028e-015
rhumerus -45.1702 16.214 -85.004
rradius 46.2616
rwrist 15.0601
rhand -29.7587 36.6102
rfingers 7.12502
rthumb -3.08439 6.65273
lclavicle 5.20816e-014 -1.59028e-015
lhumerus -7.4918 0.61016 82.0997
lradius 88.9746
lwrist 30.4262
lhand -16.5467 -8.02078
lfingers 7.12502
lthumb 9.67273 21.7371
rfemur -6.70882 -1.50307 9.25136
rtibia 46.7377
rfoot -19.8994 -16.9636
rtoes -13.3132
lfemur -7.38573 -14.7045 -24.0416
ltibia 38.3416
lfoot -21.7275 4.32055
ltoes -1.20128
8
root -3.73161 17.0264 -1.11834 -21.6701 -71.4597 9.9582
lowerback 16.2613 -5.98621 -5.28891
upperback 8.05376 -9.13228 -3.80747
thorax -0.266719 -4.82425 0.391358
lowerneck 6.49345 6.85499 -3.08169
upperneck 20.6665 8.05753 1.46837
head 5.00546 3.40685 1.10934
rclavicle 3.18055e-014 2.46493e-014
rhumerus -45.5708 15.5627 -84.3423
rradius 45.0063
rwrist 15.8727
rhand -29.6302 36.8969
rfingers 7.12502
rthumb -2.9603 6.93766
lclavicle 3.18055e-014 2.46493e-014
lhumerus -5.78757 0.833026 82.1127
lradius 90.6058
lwrist 30.7909
lhand -16.518 -8.22484
lfingers 7.12502
lthumb 9.70038 21.5318
rfemur -8.42404 -2.26194 8.66274
rtibia 49.4943
rfoot -16.9592 -16.8853
rtoes -12.6234
lfemur -6.77849 -14.7062 -24.3392
ltibia 37.8939
lfoot -21.5421 4.33918
ltoes -1.13401
9
root -3.70521 17.0372 -1.06544 -21.8314 -71.4085 9.73068
lowerback 16.8289 -6.39482 -5.54786
upperback 8.18266 -9.75086 -3.71591
thorax -0.336911 -5.14786 0.770009
lowerneck 6.66988 7.0419 -3.10194
upperneck 20.5217 8.31949 1.23959
head 4.93793 3.51792 1.03672
rclavicle 6.44062e-014 6.36111e-015
rhumerus -46.0068 15.031 -83.6722
rradius 43.9301
rwrist 16.5454
rhand -29.6041 37.0106
rfingers 7.12502
rthumb -2.93513 7.05102
lclavicle 6.44062e-014 6.36111e-015
lhumerus -4.0051 1.13389 82.2138
lradius 92.1835
lwrist 31.1257
lhand -16.5775 -8.52441
lfingers 7.12502
lthumb 9.64304 21.2349
rfemur -10.2351 -2.95815 8.13897
rtibia 52.3477
rfoot -13.8706 -16.8207
rtoes -11.9096
lfemur -6.15947 -14.761 -24.617
ltibia 37.5025
lfoot -21.397 4.38865
ltoes -1.11801
10
root -3.6785 17.0443 -1.01509 -21.9757 -71.3447 9.48668
lowerback 17.4195 -6.82964 -5.87086
upperback 8.31835 -10.4175 -3.61726
thorax -0.385086 -5.49866 1.20239
lowerneck 6.84354 7.26397 -3.15972
upperneck 20.3488 8.62483 1.02565
head 4.85976 3.64953 0.974425
rclavicle 7.69297e-014 2.06736e-014
rhumerus -46.5149 14.8081 -83.1052
rradius 43.1283
rwrist 17.0127
rhand -29.5785 36.8555
rfingers 7.12502
rthumb -2.91036 6.89558
lclavicle 7.69297e-014 2.06736e-014
lhumerus -2.19842 1.58894 82.3792
lradius 93.7469
lwrist 31.5298
lhand -16.6127 -8.92313
lfingers 7.12502
lthumb 9.609 20.8377
rfemur -12.1413 -3.58037 7.64767
rtibia 55.2729
rfoot -10.8618 -16.5936
rtoes -11.1756
lfemur -5.5811 -14.8802 -24.9016
ltibia 37.1825
lfoot -21.2884 4.50116
ltoes -0.947604
11
root -3.65205 17.0486 -0.96645 -22.0222 -71.3034 9.11632
lowerback 18.038 -7.26601 -6.2189
upperback 8.48616 -11.0949 -3.49292
thorax -0.388591 -5.85983 1.6791
lowerneck 6.98893 7.49989 -3.21897
upperneck 20.1445 8.95597 0.775016
head 4.77847 3.79394 0.901509
rclavicle -7.0171e-014 -2.38542e-015
rhumerus -47.1717 14.9947 -82.7145
rradius 42.7169
rwrist 17.0718
rhand -29.5373 36.4324
rfingers 7.12502
rthumb -2.87066 6.47198
lclavicle -7.0171e-014 -2.38542e-015
lhumerus -0.324651 2.10639 82.6184
lradius 95.233
lwrist 31.9446
lhand -16.5529 -9.44767
lfingers 7.12502
lthumb 9.66672 20.3105
rfemur -14.1016 -4.11923 7.24608
rtibia 58.2305
rfoot -8.05167 -16.2233
rtoes -10.7123
lfemur -5.00941 -15.0368 -25.1538
ltibia 36.9237
lfoot -21.2289 4.66812
ltoes -0.973443
12
root -3.62632 17.0519 -0.920205 -22.0014 -71.2555 8.66662
lowerback 18.6719 -7.71883 -6.6139
upperback 8.68282 -11.8067 -3.36217
thorax -0.339355 -6.24432 2.19246
lowerneck 7.4261 7.77184 -3.30429
upperneck 19.2593 9.32242 0.452703
head 5.00141 3.95917 0.851813
rclavicle 1.76918e-014 -2.54444e-014
rhumerus -47.8569 15.3848 -82.4269
rradius 42.5167
rwrist 16.9525
rhand -29.371 35.8297
rfingers 7.12502
rthumb -2.70996 5.86717
lclavicle 1.76918e-014 -2.54444e-014
lhumerus 1.62167 2.64919 82.8354
lradius 96.6684
lwrist 32.4637
lhand -16.428 -10.0193
lfingers 7.12502
lthumb 9.78724 19.7332
rfemur -16.1027 -4.62082 6.90531
rtibia 61.1978
rfoot -5.56227 -15.669
rtoes -10.616
lfemur -4.44594 -15.26 -25.3919
ltibia 36.6946
lfoot -21.1635 4.88469
ltoes -0.86914
13
root -3.60038 17.0534 -0.87678 -21.925 -71.2134 8.13754
lowerback 19.3466 -8.1746 -7.03311
upperback 8.89705 -12.5346 -3.21968
thorax -0.264072 -6.64203 2.73787
lowerneck 7.57531 8.05145 -3.42976
upperneck 18.9484 9.70938 0.185802
head 4.85778 4.13447 0.771466
rclavicle -2.98177e-014 1.59028e-015
rhumerus -48.4326 15.6162 -82.0508
rradius 42.3235
rwrist 17.0484
rhand -29.1516 35.31
rfingers 7.12502
rthumb -2.49809 5.34486
lclavicle -2.98177e-014 1.59028e-015
lhumerus 3.67059 3.17409 83.0503
lradius 98.0237
lwrist 33.1004
lhand -16.252 -10.5094
lfingers 7.12502
lthumb 9.95703 19.2351
rfemur -18.1279 -5.10003 6.62644
rtibia 64.1678
rfoot -3.64238 -14.7711
rtoes -10.6946
lfemur -3.86978 -15.5025 -25.6032
ltibia 36.473
lfoot -21.1186 5.11558
ltoes -0.840067
